REM DIRINDEX 1\2,1\3,1\4,1\5
REM DIRNAME folder01,folder02,folder03,folder04,folder05
TITLE ""
FILE "1Q_t_1679-1688.mp3" MP3
  TRACK 01 AUDIO
    TITLE "3:cjc004_5944"
    INDEX 01 00:00:00
  TRACK 02 AUDIO
    TITLE "0:"
    INDEX 01 00:01:01
  TRACK 03 AUDIO
    TITLE "4:cjc004_5945"
    INDEX 01 00:01:32
  TRACK 04 AUDIO
    TITLE "0:"
    INDEX 01 00:02:28
  TRACK 05 AUDIO
    TITLE "5:cjc004_5946"
    INDEX 01 00:02:51
  TRACK 06 AUDIO
    TITLE "0:"
    INDEX 01 00:06:59
  TRACK 07 AUDIO
    TITLE "3:cjc004_5947"
    INDEX 01 00:07:39
  TRACK 08 AUDIO
    TITLE "0:"
    INDEX 01 00:08:72
  TRACK 09 AUDIO
    TITLE "4:cjc004_5948"
    INDEX 01 00:09:22
  TRACK 10 AUDIO
    TITLE "0:"
    INDEX 01 00:10:61
  TRACK 11 AUDIO
    TITLE "5:cjc004_5949"
    INDEX 01 00:11:13
  TRACK 12 AUDIO
    TITLE "0:"
    INDEX 01 00:15:62
  TRACK 13 AUDIO
    TITLE "3:cjc004_5950"
    INDEX 01 00:16:34
  TRACK 14 AUDIO
    TITLE "0:"
    INDEX 01 00:17:43
  TRACK 15 AUDIO
    TITLE "4:cjc004_5951"
    INDEX 01 00:17:69
  TRACK 16 AUDIO
    TITLE "0:"
    INDEX 01 00:19:22
  TRACK 17 AUDIO
    TITLE "5:cjc004_5952"
    INDEX 01 00:19:44
  TRACK 18 AUDIO
    TITLE "0:"
    INDEX 01 00:24:24
  TRACK 19 AUDIO
    TITLE "3:cjc004_5953"
    INDEX 01 00:24:74
  TRACK 20 AUDIO
    TITLE "0:"
    INDEX 01 00:26:05
  TRACK 21 AUDIO
    TITLE "4:cjc004_5954"
    INDEX 01 00:26:30
  TRACK 22 AUDIO
    TITLE "0:"
    INDEX 01 00:27:43
  TRACK 23 AUDIO
    TITLE "5:cjc004_5955"
    INDEX 01 00:27:67
  TRACK 24 AUDIO
    TITLE "0:"
    INDEX 01 00:32:25
  TRACK 25 AUDIO
    TITLE "3:cjc004_5956"
    INDEX 01 00:33:11
  TRACK 26 AUDIO
    TITLE "0:"
    INDEX 01 00:34:14
  TRACK 27 AUDIO
    TITLE "4:cjc004_5957"
    INDEX 01 00:34:42
  TRACK 28 AUDIO
    TITLE "0:"
    INDEX 01 00:35:49
  TRACK 29 AUDIO
    TITLE "5:cjc004_5958"
    INDEX 01 00:36:01
  TRACK 30 AUDIO
    TITLE "0:"
    INDEX 01 00:42:10
  TRACK 31 AUDIO
    TITLE "3:cjc004_5959"
    INDEX 01 00:42:66
  TRACK 32 AUDIO
    TITLE "0:"
    INDEX 01 00:44:22
  TRACK 33 AUDIO
    TITLE "4:cjc004_5960"
    INDEX 01 00:44:46
  TRACK 34 AUDIO
    TITLE "0:"
    INDEX 01 00:45:59
  TRACK 35 AUDIO
    TITLE "5:cjc004_5961"
    INDEX 01 00:46:02
  TRACK 36 AUDIO
    TITLE "0:"
    INDEX 01 00:51:01
  TRACK 37 AUDIO
    TITLE "3:cjc004_5962"
    INDEX 01 00:51:54
  TRACK 38 AUDIO
    TITLE "0:"
    INDEX 01 00:52:71
  TRACK 39 AUDIO
    TITLE "4:cjc004_5963"
    INDEX 01 00:53:23
  TRACK 40 AUDIO
    TITLE "0:"
    INDEX 01 00:55:34
  TRACK 41 AUDIO
    TITLE "5:cjc004_5964"
    INDEX 01 00:55:53
  TRACK 42 AUDIO
    TITLE "0:"
    INDEX 01 01:00:47
  TRACK 43 AUDIO
    TITLE "3:cjc004_5965"
    INDEX 01 01:01:23
  TRACK 44 AUDIO
    TITLE "0:"
    INDEX 01 01:02:46
  TRACK 45 AUDIO
    TITLE "4:cjc004_5966"
    INDEX 01 01:02:73
  TRACK 46 AUDIO
    TITLE "0:"
    INDEX 01 01:04:19
  TRACK 47 AUDIO
    TITLE "5:cjc004_5967"
    INDEX 01 01:04:43
  TRACK 48 AUDIO
    TITLE "0:"
    INDEX 01 01:09:28
  TRACK 49 AUDIO
    TITLE "3:cjc004_5968"
    INDEX 01 01:10:14
  TRACK 50 AUDIO
    TITLE "0:"
    INDEX 01 01:11:31
  TRACK 51 AUDIO
    TITLE "4:cjc004_5969"
    INDEX 01 01:11:64
  TRACK 52 AUDIO
    TITLE "0:"
    INDEX 01 01:13:38
  TRACK 53 AUDIO
    TITLE "5:cjc004_5970"
    INDEX 01 01:13:65
  TRACK 54 AUDIO
    TITLE "0:"
    INDEX 01 01:17:73
  TRACK 55 AUDIO
    TITLE "3:cjc004_5971"
    INDEX 01 01:18:49
  TRACK 56 AUDIO
    TITLE "0:"
    INDEX 01 01:19:58
  TRACK 57 AUDIO
    TITLE "4:cjc004_5972"
    INDEX 01 01:20:08
  TRACK 58 AUDIO
    TITLE "0:"
    INDEX 01 01:21:25
  TRACK 59 AUDIO
    TITLE "5:cjc004_5973"
    INDEX 01 01:21:49
  TRACK 60 AUDIO
    TITLE "0:"
    INDEX 01 01:26:07
